<svg id="Layer_1" data-name="Layer 1" xmlns="http://www.w3.org/2000/svg" width="32" height="32" viewBox="0 0 32 32"><defs><style>.cls-1{fill:#0077b7;stroke:#dfe6ff;stroke-miterlimit:10;stroke-width:3px;}.cls-2{fill:#fff;fill-rule:evenodd;}</style></defs><title>linkedin logo1</title><circle class="cls-1" cx="16" cy="16" r="14.5"/><path class="cls-2" d="M9.63,7a1.63,1.63,0,1,0,1.63,1.63A1.63,1.63,0,0,0,9.63,7Zm12.3,7.53c-.22-1.76-1-2.87-3.41-2.87a2.92,2.92,0,0,0-2.75,1.27h0V11.66h-2.6V21h2.72V16.37c0-1.22.24-2.4,1.74-2.4s1.61,1.4,1.61,2.49V21H22V15.87c0-.48,0-.93-.07-1.34ZM8,14.14V21h3.26V11.66H8Z" transform="translate(1 1)"/></svg>